<?xml version="1.0" encoding="UTF-8" standalone="no"?>
<!-- Created with Inkscape (http://www.inkscape.org/) -->

<svg
   xmlns:dc="http://purl.org/dc/elements/1.1/"
   xmlns:cc="http://creativecommons.org/ns#"
   xmlns:rdf="http://www.w3.org/1999/02/22-rdf-syntax-ns#"
   xmlns:svg="http://www.w3.org/2000/svg"
   xmlns="http://www.w3.org/2000/svg"
   xmlns:xlink="http://www.w3.org/1999/xlink"
   xmlns:sodipodi="http://sodipodi.sourceforge.net/DTD/sodipodi-0.dtd"
   xmlns:inkscape="http://www.inkscape.org/namespaces/inkscape"
   width="210mm"
   height="297mm"
   viewBox="0 0 210 297"
   version="1.1"
   id="svg8"
   inkscape:version="0.92.2 (5c3e80d, 2017-08-06)"
   sodipodi:docname="logo.svg">
  <defs
     id="defs2">
    <linearGradient
       inkscape:collect="always"
       id="linearGradient3939">
      <stop
         style="stop-color:#8686bf;stop-opacity:1;"
         offset="0"
         id="stop3935" />
      <stop
         style="stop-color:#8686bf;stop-opacity:0;"
         offset="1"
         id="stop3937" />
    </linearGradient>
    <inkscape:perspective
       sodipodi:type="inkscape:persp3d"
       inkscape:vp_x="-60.971773 : 17.91948 : 1"
       inkscape:vp_y="0 : 2110.5556 : 0"
       inkscape:vp_z="261.70063 : 17.91948 : 1"
       inkscape:persp3d-origin="100.36442 : -86.553019 : 1"
       id="perspective3786" />
    <linearGradient
       inkscape:collect="always"
       xlink:href="#linearGradient3939"
       id="linearGradient3933"
       x1="45.016972"
       y1="193.43452"
       x2="176.60828"
       y2="159.41667"
       gradientUnits="userSpaceOnUse" />
    <linearGradient
       inkscape:collect="always"
       xlink:href="#linearGradient3939"
       id="linearGradient3964"
       gradientUnits="userSpaceOnUse"
       x1="45.016972"
       y1="193.43452"
       x2="176.60828"
       y2="159.41667" />
    <linearGradient
       inkscape:collect="always"
       xlink:href="#linearGradient3939"
       id="linearGradient3976"
       gradientUnits="userSpaceOnUse"
       x1="45.016972"
       y1="193.43452"
       x2="176.60828"
       y2="159.41667" />
    <linearGradient
       inkscape:collect="always"
       xlink:href="#linearGradient3939"
       id="linearGradient3988"
       gradientUnits="userSpaceOnUse"
       x1="45.016972"
       y1="193.43452"
       x2="176.60828"
       y2="159.41667" />
    <linearGradient
       inkscape:collect="always"
       xlink:href="#linearGradient3939"
       id="linearGradient4000"
       gradientUnits="userSpaceOnUse"
       x1="45.016972"
       y1="193.43452"
       x2="176.60828"
       y2="159.41667" />
    <linearGradient
       inkscape:collect="always"
       xlink:href="#linearGradient3939"
       id="linearGradient4024"
       gradientUnits="userSpaceOnUse"
       x1="45.016972"
       y1="193.43452"
       x2="176.60828"
       y2="159.41667" />
    <linearGradient
       inkscape:collect="always"
       xlink:href="#linearGradient3939"
       id="linearGradient4136"
       gradientUnits="userSpaceOnUse"
       x1="45.016972"
       y1="193.43452"
       x2="176.60828"
       y2="159.41667" />
    <linearGradient
       inkscape:collect="always"
       xlink:href="#linearGradient3939"
       id="linearGradient4161"
       gradientUnits="userSpaceOnUse"
       x1="45.016972"
       y1="193.43452"
       x2="176.60828"
       y2="159.41667" />
    <linearGradient
       inkscape:collect="always"
       xlink:href="#linearGradient3939"
       id="linearGradient4245"
       gradientUnits="userSpaceOnUse"
       x1="45.016972"
       y1="193.43452"
       x2="176.60828"
       y2="159.41667" />
    <linearGradient
       inkscape:collect="always"
       xlink:href="#linearGradient3939"
       id="linearGradient4257"
       gradientUnits="userSpaceOnUse"
       x1="45.016972"
       y1="193.43452"
       x2="176.60828"
       y2="159.41667" />
    <linearGradient
       inkscape:collect="always"
       xlink:href="#linearGradient3939"
       id="linearGradient4269"
       gradientUnits="userSpaceOnUse"
       x1="45.016972"
       y1="193.43452"
       x2="176.60828"
       y2="159.41667" />
    <linearGradient
       inkscape:collect="always"
       xlink:href="#linearGradient3939"
       id="linearGradient4293"
       gradientUnits="userSpaceOnUse"
       x1="45.016972"
       y1="193.43452"
       x2="176.60828"
       y2="159.41667" />
    <linearGradient
       inkscape:collect="always"
       xlink:href="#linearGradient3939"
       id="linearGradient4305"
       gradientUnits="userSpaceOnUse"
       x1="45.016972"
       y1="193.43452"
       x2="176.60828"
       y2="159.41667" />
    <linearGradient
       inkscape:collect="always"
       xlink:href="#linearGradient3939"
       id="linearGradient4317"
       gradientUnits="userSpaceOnUse"
       x1="45.016972"
       y1="193.43452"
       x2="176.60828"
       y2="159.41667" />
  </defs>
  <sodipodi:namedview
     id="base"
     pagecolor="#ffffff"
     bordercolor="#666666"
     borderopacity="1.0"
     inkscape:pageopacity="0.0"
     inkscape:pageshadow="2"
     inkscape:zoom="0.35"
     inkscape:cx="400"
     inkscape:cy="560"
     inkscape:document-units="mm"
     inkscape:current-layer="layer1"
     showgrid="false"
     inkscape:object-paths="false"
     inkscape:snap-nodes="false"
     inkscape:snap-to-guides="true"
     inkscape:snap-others="false"
     inkscape:object-nodes="false"
     inkscape:measure-start="202.857,868.571"
     inkscape:measure-end="325.714,720"
     inkscape:window-width="1366"
     inkscape:window-height="705"
     inkscape:window-x="-8"
     inkscape:window-y="-8"
     inkscape:window-maximized="1" />
  <metadata
     id="metadata5">
    <rdf:RDF>
      <cc:Work
         rdf:about="">
        <dc:format>image/svg+xml</dc:format>
        <dc:type
           rdf:resource="http://purl.org/dc/dcmitype/StillImage" />
        <dc:title></dc:title>
      </cc:Work>
    </rdf:RDF>
  </metadata>
  <g
     inkscape:label="Capa 1"
     inkscape:groupmode="layer"
     id="layer1">
    <path
       id="path3711"
       transform="scale(0.26458333)"
       style="fill:#000000;stroke-width:0.99999994"
       d="m 324.82617,348.29297 c -0.31623,0.0309 -3.91762,0.38457 -5.39453,0.5293 -0.004,0.0168 -0.007,0.034 -0.0117,0.0508 1.80238,-0.19049 3.60675,-0.36814 5.40625,-0.58008 z" />
    <path
       id="path3713"
       transform="scale(0.26458333)"
       style="fill:#000000;stroke-width:0.99999994"
       d="m 483.60352,299.38867 c -0.0135,0.01 -0.0275,0.0195 -0.041,0.0293 0.0669,0.46672 0.12396,0.92636 0.19531,1.39648 0.12378,-0.0592 0.25052,-0.11214 0.375,-0.16992 -0.17588,-0.41905 -0.3532,-0.83686 -0.52929,-1.25586 z" />
    <path
       sodipodi:type="star"
       style="fill:url(#linearGradient3933);stroke-width:0.26458332;fill-opacity:1"
       id="path3784"
       sodipodi:sides="5"
       sodipodi:cx="94.494041"
       sodipodi:cy="67.190475"
       sodipodi:r1="32.959869"
       sodipodi:r2="71.296761"
       sodipodi:arg1="0.93188234"
       sodipodi:arg2="-0.41702401"
       inkscape:flatsided="false"
       inkscape:rounded="0"
       inkscape:randomized="0"
       d="M 114.1488,93.648808 159.68055,38.312342 75.404327,94.059339 142.10252,120.2627 63.041188,57.338014 58.731185,128.86905 94.144823,34.232456 24.782904,52.237705 125.73107,56.673761 87.173045,-3.7294165 Z"
       inkscape:transform-center-x="0.1097282"
       inkscape:transform-center-y="-3.0445785"
       transform="matrix(1.0168117,0,0,1,1.8512147,65.011905)" />
    <path
       sodipodi:type="star"
       style="fill:url(#linearGradient3964);fill-opacity:1;stroke-width:0.26458332"
       id="path3784-7"
       sodipodi:sides="5"
       sodipodi:cx="94.494041"
       sodipodi:cy="67.190475"
       sodipodi:r1="32.959869"
       sodipodi:r2="71.296761"
       sodipodi:arg1="0.93188234"
       sodipodi:arg2="-0.41702401"
       inkscape:flatsided="false"
       inkscape:rounded="0"
       inkscape:randomized="0"
       d="M 114.1488,93.648808 159.68055,38.312342 75.404327,94.059339 142.10252,120.2627 63.041188,57.338014 58.731185,128.86905 94.144823,34.232456 24.782904,52.237705 125.73107,56.673761 87.173045,-3.7294165 Z"
       inkscape:transform-center-x="0.1097282"
       inkscape:transform-center-y="-3.0445785"
       transform="matrix(1.0168117,0,0,1,18.098651,96.090899)" />
    <path
       sodipodi:type="star"
       style="fill:url(#linearGradient3976);fill-opacity:1;stroke-width:0.26458332"
       id="path3784-1"
       sodipodi:sides="5"
       sodipodi:cx="94.494041"
       sodipodi:cy="67.190475"
       sodipodi:r1="32.959869"
       sodipodi:r2="71.296761"
       sodipodi:arg1="0.93188234"
       sodipodi:arg2="-0.41702401"
       inkscape:flatsided="false"
       inkscape:rounded="0"
       inkscape:randomized="0"
       d="M 114.1488,93.648808 159.68055,38.312342 75.404327,94.059339 142.10252,120.2627 63.041188,57.338014 58.731185,128.86905 94.144823,34.232456 24.782904,52.237705 125.73107,56.673761 87.173045,-3.7294165 Z"
       inkscape:transform-center-x="0.1097282"
       inkscape:transform-center-y="-3.0445785"
       transform="matrix(1.0168117,0,0,1,40.02127,143.7159)" />
    <path
       sodipodi:type="star"
       style="fill:url(#linearGradient3988);fill-opacity:1;stroke-width:0.26458332"
       id="path3784-13"
       sodipodi:sides="5"
       sodipodi:cx="94.494041"
       sodipodi:cy="67.190475"
       sodipodi:r1="32.959869"
       sodipodi:r2="71.296761"
       sodipodi:arg1="0.93188234"
       sodipodi:arg2="-0.41702401"
       inkscape:flatsided="false"
       inkscape:rounded="0"
       inkscape:randomized="0"
       d="M 114.1488,93.648808 159.68055,38.312342 75.404327,94.059339 142.10252,120.2627 63.041188,57.338014 58.731185,128.86905 94.144823,34.232456 24.782904,52.237705 125.73107,56.673761 87.173045,-3.7294165 Z"
       inkscape:transform-center-x="0.1097282"
       inkscape:transform-center-y="-3.0445785"
       transform="matrix(1.0168117,0,0,1,52.872461,166.39448)" />
    <path
       sodipodi:type="star"
       style="fill:url(#linearGradient4000);fill-opacity:1;stroke-width:0.26458332"
       id="path3784-9"
       sodipodi:sides="5"
       sodipodi:cx="94.494041"
       sodipodi:cy="67.190475"
       sodipodi:r1="32.959869"
       sodipodi:r2="71.296761"
       sodipodi:arg1="0.93188234"
       sodipodi:arg2="-0.41702401"
       inkscape:flatsided="false"
       inkscape:rounded="0"
       inkscape:randomized="0"
       d="M 114.1488,93.648808 159.68055,38.312342 75.404327,94.059339 142.10252,120.2627 63.041188,57.338014 58.731185,128.86905 94.144823,34.232456 24.782904,52.237705 125.73107,56.673761 87.173045,-3.7294165 Z"
       inkscape:transform-center-x="0.1097282"
       inkscape:transform-center-y="-3.0445785"
       transform="matrix(1.0168117,0,0,1,-46.157301,3.8647086)" />
    <path
       sodipodi:type="star"
       style="fill:url(#linearGradient4024);fill-opacity:1;stroke-width:0.26458332"
       id="path3784-17"
       sodipodi:sides="5"
       sodipodi:cx="94.494041"
       sodipodi:cy="67.190475"
       sodipodi:r1="32.959869"
       sodipodi:r2="71.296761"
       sodipodi:arg1="0.93188234"
       sodipodi:arg2="-0.41702401"
       inkscape:flatsided="false"
       inkscape:rounded="0"
       inkscape:randomized="0"
       d="M 114.1488,93.648808 159.68055,38.312342 75.404327,94.059339 142.10252,120.2627 63.041188,57.338014 58.731185,128.86905 94.144823,34.232456 24.782904,52.237705 125.73107,56.673761 87.173045,-3.7294165 Z"
       inkscape:transform-center-x="0.1097282"
       inkscape:transform-center-y="-3.0445785"
       transform="matrix(1.0168117,0,0,1,-30.282301,30.323042)" />
    <path
       sodipodi:type="star"
       style="fill:url(#linearGradient4136);fill-opacity:1;stroke-width:0.26458332"
       id="path3784-9-2"
       sodipodi:sides="5"
       sodipodi:cx="94.494041"
       sodipodi:cy="67.190475"
       sodipodi:r1="32.959869"
       sodipodi:r2="71.296761"
       sodipodi:arg1="0.93188234"
       sodipodi:arg2="-0.41702401"
       inkscape:flatsided="false"
       inkscape:rounded="0"
       inkscape:randomized="0"
       d="M 114.1488,93.648808 159.68055,38.312342 75.404327,94.059339 142.10252,120.2627 63.041188,57.338014 58.731185,128.86905 94.144823,34.232456 24.782904,52.237705 125.73107,56.673761 87.173045,-3.7294165 Z"
       inkscape:transform-center-x="0.052883265"
       inkscape:transform-center-y="-1.4650607"
       transform="matrix(0.49004549,0,0,0.48120314,144.69755,218.88823)" />
    <path
       sodipodi:type="star"
       style="fill:url(#linearGradient4161);fill-opacity:1;stroke-width:0.26458332"
       id="path3784-9-2-0"
       sodipodi:sides="5"
       sodipodi:cx="94.494041"
       sodipodi:cy="67.190475"
       sodipodi:r1="32.959869"
       sodipodi:r2="71.296761"
       sodipodi:arg1="0.93188234"
       sodipodi:arg2="-0.41702401"
       inkscape:flatsided="false"
       inkscape:rounded="0"
       inkscape:randomized="0"
       d="M 114.1488,93.648808 159.68055,38.312342 75.404327,94.059339 142.10252,120.2627 63.041188,57.338014 58.731185,128.86905 94.144823,34.232456 24.782904,52.237705 125.73107,56.673761 87.173045,-3.7294165 Z"
       inkscape:transform-center-x="0.052883265"
       inkscape:transform-center-y="-1.4650607"
       transform="matrix(0.49004548,0,0,0.48120313,156.64154,84.706685)" />
    <path
       sodipodi:type="star"
       style="fill:url(#linearGradient4245);fill-opacity:1;stroke-width:0.26458332"
       id="path3784-9-2-2"
       sodipodi:sides="5"
       sodipodi:cx="94.494041"
       sodipodi:cy="67.190475"
       sodipodi:r1="32.959869"
       sodipodi:r2="71.296761"
       sodipodi:arg1="0.93188234"
       sodipodi:arg2="-0.41702401"
       inkscape:flatsided="false"
       inkscape:rounded="0"
       inkscape:randomized="0"
       d="M 114.1488,93.648808 159.68055,38.312342 75.404327,94.059339 142.10252,120.2627 63.041188,57.338014 58.731185,128.86905 94.144823,34.232456 24.782904,52.237705 125.73107,56.673761 87.173045,-3.7294165 Z"
       inkscape:transform-center-x="0.052883265"
       inkscape:transform-center-y="-1.4650607"
       transform="matrix(0.49004548,0,0,0.48120313,161.93321,52.200733)" />
    <path
       sodipodi:type="star"
       style="fill:url(#linearGradient4257);fill-opacity:1;stroke-width:0.26458332"
       id="path3784-9-2-9"
       sodipodi:sides="5"
       sodipodi:cx="94.494041"
       sodipodi:cy="67.190475"
       sodipodi:r1="32.959869"
       sodipodi:r2="71.296761"
       sodipodi:arg1="0.93188234"
       sodipodi:arg2="-0.41702401"
       inkscape:flatsided="false"
       inkscape:rounded="0"
       inkscape:randomized="0"
       d="M 114.1488,93.648808 159.68055,38.312342 75.404327,94.059339 142.10252,120.2627 63.041188,57.338014 58.731185,128.86905 94.144823,34.232456 24.782904,52.237705 125.73107,56.673761 87.173045,-3.7294165 Z"
       inkscape:transform-center-x="0.052883265"
       inkscape:transform-center-y="-1.4650607"
       transform="matrix(0.49004548,0,0,0.48120313,164.20106,24.986447)" />
    <path
       sodipodi:type="star"
       style="fill:url(#linearGradient4269);fill-opacity:1;stroke-width:0.26458332"
       id="path3784-9-2-1"
       sodipodi:sides="5"
       sodipodi:cx="94.494041"
       sodipodi:cy="67.190475"
       sodipodi:r1="32.959869"
       sodipodi:r2="71.296761"
       sodipodi:arg1="0.93188234"
       sodipodi:arg2="-0.41702401"
       inkscape:flatsided="false"
       inkscape:rounded="0"
       inkscape:randomized="0"
       d="M 114.1488,93.648808 159.68055,38.312342 75.404327,94.059339 142.10252,120.2627 63.041188,57.338014 58.731185,128.86905 94.144823,34.232456 24.782904,52.237705 125.73107,56.673761 87.173045,-3.7294165 Z"
       inkscape:transform-center-x="0.052883265"
       inkscape:transform-center-y="-1.4650607"
       transform="matrix(0.49004548,0,0,0.48120313,165.71297,-2.2278385)" />
    <path
       sodipodi:type="star"
       style="fill:url(#linearGradient4293);fill-opacity:1;stroke-width:0.26458332"
       id="path3784-9-2-27"
       sodipodi:sides="5"
       sodipodi:cx="94.494041"
       sodipodi:cy="67.190475"
       sodipodi:r1="32.959869"
       sodipodi:r2="71.296761"
       sodipodi:arg1="0.93188234"
       sodipodi:arg2="-0.41702401"
       inkscape:flatsided="false"
       inkscape:rounded="0"
       inkscape:randomized="0"
       d="M 114.1488,93.648808 159.68055,38.312342 75.404327,94.059339 142.10252,120.2627 63.041188,57.338014 58.731185,128.86905 94.144823,34.232456 24.782904,52.237705 125.73107,56.673761 87.173045,-3.7294165 Z"
       inkscape:transform-center-x="0.052883265"
       inkscape:transform-center-y="-1.4650607"
       transform="matrix(0.49004548,0,0,0.48120313,151.34987,124.77216)" />
    <path
       sodipodi:type="star"
       style="fill:url(#linearGradient4305);fill-opacity:1;stroke-width:0.26458332"
       id="path3784-9-2-3"
       sodipodi:sides="5"
       sodipodi:cx="94.494041"
       sodipodi:cy="67.190475"
       sodipodi:r1="32.959869"
       sodipodi:r2="71.296761"
       sodipodi:arg1="0.93188234"
       sodipodi:arg2="-0.41702401"
       inkscape:flatsided="false"
       inkscape:rounded="0"
       inkscape:randomized="0"
       d="M 114.1488,93.648808 159.68055,38.312342 75.404327,94.059339 142.10252,120.2627 63.041188,57.338014 58.731185,128.86905 94.144823,34.232456 24.782904,52.237705 125.73107,56.673761 87.173045,-3.7294165 Z"
       inkscape:transform-center-x="0.052883265"
       inkscape:transform-center-y="-1.4650607"
       transform="matrix(0.49004548,0,0,0.48120313,146.05821,161.81383)" />
    <path
       sodipodi:type="star"
       style="fill:url(#linearGradient4317);fill-opacity:1;stroke-width:0.26458332"
       id="path3784-9-2-13"
       sodipodi:sides="5"
       sodipodi:cx="94.494041"
       sodipodi:cy="67.190475"
       sodipodi:r1="32.959869"
       sodipodi:r2="71.296761"
       sodipodi:arg1="0.93188234"
       sodipodi:arg2="-0.41702401"
       inkscape:flatsided="false"
       inkscape:rounded="0"
       inkscape:randomized="0"
       d="M 114.1488,93.648808 159.68055,38.312342 75.404327,94.059339 142.10252,120.2627 63.041188,57.338014 58.731185,128.86905 94.144823,34.232456 24.782904,52.237705 125.73107,56.673761 87.173045,-3.7294165 Z"
       inkscape:transform-center-x="0.052883265"
       inkscape:transform-center-y="-1.4650607"
       transform="matrix(0.49004548,0,0,0.48120313,145.30225,190.54002)" />
  </g>
</svg>
